<?xml version="1.0" encoding="UTF-8" standalone="no"?>
<!-- Created with Inkscape (http://www.inkscape.org/) -->
<svg
   xmlns:dc="http://purl.org/dc/elements/1.1/"
   xmlns:cc="http://creativecommons.org/ns#"
   xmlns:rdf="http://www.w3.org/1999/02/22-rdf-syntax-ns#"
   xmlns:svg="http://www.w3.org/2000/svg"
   xmlns="http://www.w3.org/2000/svg"
   xmlns:sodipodi="http://sodipodi.sourceforge.net/DTD/sodipodi-0.dtd"
   xmlns:inkscape="http://www.inkscape.org/namespaces/inkscape"
   width="720"
   height="720"
   id="svg2619"
   sodipodi:version="0.32"
   inkscape:version="0.46"
   version="1.0"
   sodipodi:docname="slider_logo_ mit_schatten.svg"
   inkscape:output_extension="org.inkscape.output.svg.inkscape"
   inkscape:export-filename="C:\projects\android\workspace\de.devisnik.android.sliding\artwork\slider_logo_ 36.png"
   inkscape:export-xdpi="4.5"
   inkscape:export-ydpi="4.5"
   style="display:inline">
  <defs
     id="defs2621">
    <inkscape:perspective
       sodipodi:type="inkscape:persp3d"
       inkscape:vp_x="0 : 526.18109 : 1"
       inkscape:vp_y="0 : 1000 : 0"
       inkscape:vp_z="744.09448 : 526.18109 : 1"
       inkscape:persp3d-origin="372.04724 : 350.78739 : 1"
       id="perspective2627" />
    <inkscape:perspective
       id="perspective10"
       inkscape:persp3d-origin="372.04724 : 350.78739 : 1"
       inkscape:vp_z="744.09448 : 526.18109 : 1"
       inkscape:vp_y="0 : 1000 : 0"
       inkscape:vp_x="0 : 526.18109 : 1"
       sodipodi:type="inkscape:persp3d" />
    <filter
       inkscape:collect="always"
       id="filter4325">
      <feGaussianBlur
         inkscape:collect="always"
         stdDeviation="2.05"
         id="feGaussianBlur4327" />
    </filter>
    <filter
       inkscape:collect="always"
       id="filter4329">
      <feGaussianBlur
         inkscape:collect="always"
         stdDeviation="6.0000001"
         id="feGaussianBlur4331" />
    </filter>
    <filter
       inkscape:collect="always"
       id="filter4333">
      <feGaussianBlur
         inkscape:collect="always"
         stdDeviation="6.0000001"
         id="feGaussianBlur4335" />
    </filter>
    <filter
       inkscape:collect="always"
       id="filter4337">
      <feGaussianBlur
         inkscape:collect="always"
         stdDeviation="6.0000001"
         id="feGaussianBlur4339" />
    </filter>
    <filter
       inkscape:collect="always"
       id="filter4341">
      <feGaussianBlur
         inkscape:collect="always"
         stdDeviation="6.0000001"
         id="feGaussianBlur4343" />
    </filter>
  </defs>
  <sodipodi:namedview
     id="base"
     pagecolor="#ffffff"
     bordercolor="#666666"
     borderopacity="1.0"
     inkscape:pageopacity="0.0"
     inkscape:pageshadow="2"
     inkscape:zoom="0.7"
     inkscape:cx="255.34711"
     inkscape:cy="163.79785"
     inkscape:document-units="px"
     inkscape:current-layer="svg2619"
     showgrid="false"
     inkscape:window-width="1440"
     inkscape:window-height="844"
     inkscape:window-x="-4"
     inkscape:window-y="-4">
    <inkscape:grid
       type="xygrid"
       id="grid4345"
       visible="true"
       enabled="true" />
  </sodipodi:namedview>
  <metadata
     id="metadata2624">
    <rdf:RDF>
      <cc:Work
         rdf:about="">
        <dc:format>image/svg+xml</dc:format>
        <dc:type
           rdf:resource="http://purl.org/dc/dcmitype/StillImage" />
      </cc:Work>
    </rdf:RDF>
  </metadata>
  <g
     inkscape:label="Ebene 1"
     inkscape:groupmode="layer"
     id="layer1"
     style="display:none" />
  <g
     inkscape:groupmode="layer"
     id="layer3"
     inkscape:label="tiles_shadow"
     style="display:inline">
    <g
       style="display:inline;filter:url(#filter4325);enable-background:new"
       id="g2712"
       transform="matrix(2.9268293,0,0,2.9268293,62,61.999993)">
      <g
         style="display:inline"
         id="g2714"
         inkscape:label="Ebene 1">
        <flowRoot
           style="font-size:40px;font-style:normal;font-weight:normal;fill:#000000;fill-opacity:1;stroke:none;stroke-width:1px;stroke-linecap:butt;stroke-linejoin:miter;stroke-opacity:1;font-family:Bitstream Vera Sans"
           id="flowRoot3165"
           xml:space="preserve"><flowRegion
             id="flowRegion3167"><rect
               y="38.371059"
               x="39.59798"
               height="41.012192"
               width="36.062447"
               id="rect3169" /></flowRegion><flowPara
             id="flowPara3171" /></flowRoot>      </g>
      <g
         style="opacity:1;display:inline"
         inkscape:label="tiles"
         id="layer7">
        <path
           style="fill:#5e845f;fill-opacity:1;fill-rule:evenodd;stroke:none;stroke-width:10;stroke-linecap:butt;stroke-linejoin:miter;stroke-miterlimit:4;stroke-opacity:1"
           d="M 10,0 L 90,0 C 95.54,0 100,4.46 100,10 L 100,90 C 100,95.54 95.54,100 90,100 L 10,100 C 4.46,100 0,95.54 0,90 L 0,10 C 0,4.46 4.46,0 10,0 z"
           id="rect2389" />
        <rect
           style="opacity:1;fill:#5e845f;fill-opacity:1;fill-rule:evenodd;stroke:none;stroke-width:10;stroke-linecap:butt;stroke-linejoin:miter;stroke-miterlimit:4;stroke-dasharray:none;stroke-opacity:1"
           id="rect7061"
           width="100"
           height="100"
           x="105"
           y="0"
           rx="10"
           ry="10"
           inkscape:export-filename="C:\Dokumente und Einstellungen\leck.PARTMASTER\Eigene Dateien\Eigene Bilder\slider_logo\slider_v2.png"
           inkscape:export-xdpi="94.959312"
           inkscape:export-ydpi="94.959312" />
        <rect
           inkscape:export-ydpi="94.959312"
           inkscape:export-xdpi="94.959312"
           inkscape:export-filename="C:\Dokumente und Einstellungen\leck.PARTMASTER\Eigene Dateien\Eigene Bilder\slider_logo\slider_v2.png"
           ry="10"
           rx="10"
           y="105"
           x="40"
           height="100"
           width="100"
           id="rect7063"
           style="opacity:1;fill:#5e845f;fill-opacity:1;fill-rule:evenodd;stroke:none;stroke-width:10;stroke-linecap:butt;stroke-linejoin:miter;stroke-miterlimit:4;stroke-dasharray:none;stroke-opacity:1" />
      </g>
      <g
         style="display:inline"
         inkscape:label="numbers"
         id="layer8">
        <path
           transform="scale(0.9875528,1.0126041)"
           style="font-size:108.0111084px;font-style:normal;font-weight:normal;fill:#ffffff;fill-opacity:1;stroke:none;stroke-width:1px;stroke-linecap:butt;stroke-linejoin:miter;stroke-opacity:1;display:inline;font-family:Bitstream Vera Sans"
           d="M 25.315103,67.09822 L 34.808267,65.832465 C 35.898207,71.21194 37.752888,75.088312 40.372315,77.46159 C 42.991703,79.834889 46.182458,81.021533 49.944589,81.021527 C 54.409858,81.021533 58.18075,79.474501 61.257276,76.380424 C 64.33372,73.28637 65.871963,69.453949 65.872008,64.883148 C 65.871963,60.523352 64.44799,56.928259 61.600084,54.097859 C 58.752097,51.267526 55.130635,49.852343 50.735686,49.852306 C 48.942504,49.852343 46.709855,50.203941 44.037731,50.907102 L 45.092527,42.574213 C 45.72538,42.644578 46.235198,42.679738 46.621982,42.679693 C 50.665336,42.679738 54.304379,41.624943 57.53912,39.515305 C 60.773788,37.405763 62.39114,34.153479 62.391181,29.758442 C 62.39114,26.277677 61.213285,23.39457 58.857615,21.109115 C 56.501868,18.823792 53.460543,17.681098 49.73363,17.681028 C 46.041818,17.681098 42.965333,18.841372 40.504165,21.161855 C 38.042957,23.48247 36.460765,26.963293 35.757583,31.604335 L 26.264419,29.916662 C 27.424688,23.55279 30.061675,18.621623 34.175389,15.123148 C 38.289076,11.624817 43.404831,9.8756155 49.52267,9.8755379 C 53.741821,9.8756155 57.626983,10.780981 61.178166,12.591638 C 64.729269,14.402444 67.445365,16.872422 69.326465,20.001579 C 71.207467,23.130872 72.147993,26.453476 72.148044,29.969401 C 72.147993,33.309643 71.251417,36.350968 69.458314,39.093387 C 67.665114,41.835902 65.010547,44.015811 61.494605,45.633122 C 66.065342,46.687958 69.616485,48.876658 72.148044,52.199227 C 74.679501,55.521866 75.945255,59.679516 75.94531,64.672189 C 75.945255,71.422899 73.484066,77.145162 68.561738,81.838994 C 63.639314,86.532837 57.416024,88.879755 49.891849,88.879757 C 43.105973,88.879755 37.47161,86.858065 32.988743,82.81468 C 28.505853,78.771304 25.947975,73.532489 25.315103,67.09822 L 25.315103,67.09822 z"
           id="text7068" />
        <text
           inkscape:export-ydpi="94.959312"
           inkscape:export-xdpi="94.959312"
           inkscape:export-filename="C:\Dokumente und Einstellungen\leck.PARTMASTER\Eigene Dateien\Eigene Bilder\slider_logo\slider_v2.png"
           transform="scale(1.0110501,0.9890707)"
           xml:space="preserve"
           style="font-size:112.53427124px;font-style:italic;font-weight:bold;opacity:1;fill:#ffffff;fill-opacity:1;stroke:none;stroke-width:1px;stroke-linecap:butt;stroke-linejoin:miter;stroke-opacity:1;display:inline;font-family:Bitstream Vera Sans"
           x="121.76559"
           y="90.994507"
           id="text7072"><tspan
             style="font-style:italic;font-weight:bold;fill:#ffffff"
             sodipodi:role="line"
             id="tspan7074"
             x="121.76559"
             y="90.994507">1</tspan></text>
        <text
           inkscape:export-ydpi="94.959312"
           inkscape:export-xdpi="94.959312"
           inkscape:export-filename="C:\Dokumente und Einstellungen\leck.PARTMASTER\Eigene Dateien\Eigene Bilder\slider_logo\slider_v2.png"
           transform="scale(0.9733842,1.0273436)"
           id="text7076"
           y="189.80992"
           x="63.603256"
           style="font-size:108.34189606px;font-style:normal;font-weight:normal;opacity:1;fill:#ffffff;fill-opacity:1;stroke:none;stroke-width:1px;stroke-linecap:butt;stroke-linejoin:miter;stroke-opacity:1;display:inline;font-family:Bitstream Vera Sans"
           xml:space="preserve"><tspan
             y="189.80992"
             x="63.603256"
             id="tspan7078"
             sodipodi:role="line">2</tspan></text>
      </g>
    </g>
    <path
       style="opacity:1;fill:#000000;fill-opacity:1;fill-rule:evenodd;stroke:none;stroke-width:10;stroke-linecap:butt;stroke-linejoin:miter;stroke-miterlimit:4;stroke-dasharray:none;stroke-opacity:1;filter:url(#filter4329)"
       d="M 84.6351,353.13993 C 78.209571,351.61527 71.221743,346.55395 67.067257,340.41547 L 63.571428,335.25017 L 63.145057,211.67874 C 62.851343,126.56507 63.196643,86.460097 64.254528,82.814554 C 66.248714,75.942468 71.832414,69.40244 78.694214,65.901811 C 84.007886,63.190983 87.8845,63.108254 208.15737,63.138683 C 326.16353,63.168526 332.42643,63.29884 338.02299,65.84034 C 344.45491,68.761197 350.12609,75.395654 352.65986,82.96334 C 354.92631,89.732583 354.94967,325.65828 352.68471,333.81688 C 350.26783,342.52295 341.03667,350.93305 331.7154,352.9212 C 322.97401,354.7857 92.431014,354.98974 84.635128,353.13993 L 84.6351,353.13993 z M 232.89071,321.66741 C 254.47544,314.39605 271.47104,297.40807 278.61413,275.96445 C 281.22337,268.13141 281.62343,264.22037 281.17116,250.96445 C 280.71851,237.69781 280.04921,233.98737 276.87407,227.14281 C 271.38084,215.30117 262.50524,206.33544 250.95091,200.95628 L 241.18757,196.41093 L 245.36961,194.67867 C 250.86347,192.40303 261.85097,181.03537 265.58356,173.7653 C 279.47676,146.70507 266.25717,111.96994 236.78117,98.08574 C 202.62193,81.995583 162.79473,93.516883 146.75717,124.12811 C 142.58876,132.08437 136.41417,150.17475 137.55823,151.07911 C 137.72261,151.20907 143.89596,152.4106 151.27673,153.7492 C 165.48734,156.32648 167.06847,155.93854 167.12099,149.86165 C 167.16196,145.12155 175.32271,129.55053 180.1691,124.96543 C 187.07626,118.43065 194.85251,115.5797 205.71429,115.59991 C 217.83271,115.62248 225.76487,118.96055 232.86357,127.0251 C 239.3253,134.36604 241.42274,140.43111 241.38923,151.67874 C 241.3309,171.25451 225.584,185.37093 201.95329,187.0313 L 191.76374,187.74725 L 190.18599,199.9695 C 189.31821,206.69173 188.84439,212.42788 189.13301,212.71651 C 189.4216,213.00514 193.95813,212.44891 199.21413,211.48045 C 233.88591,205.09191 259.61106,235.03534 249.29499,269.77331 C 243.03134,290.86537 219.19476,305.1502 198.12937,300.43597 C 182.1683,296.86401 171.64739,285.82061 165.76949,266.46893 L 162.71694,256.419 L 155.28704,257.49421 C 151.20059,258.0856 144.82683,258.98353 141.1231,259.4896 C 134.48323,260.39688 134.39964,260.47357 135.14613,264.97281 C 141.59809,303.86018 170.67851,327.2518 210.19559,325.34084 C 218.8025,324.92461 227.309,323.54777 232.89069,321.66744 L 232.89071,321.66741 z"
       id="path3623" />
    <path
       style="opacity:1;fill:#000000;fill-opacity:1;fill-rule:evenodd;stroke:none;stroke-width:10;stroke-linecap:butt;stroke-linejoin:miter;stroke-miterlimit:4;stroke-dasharray:none;stroke-opacity:1;filter:url(#filter4333)"
       d="M 395,353.8338 C 394.21429,353.57167 391.81543,352.97028 389.669,352.49734 C 384.16429,351.2844 375.734,343.44821 372.66426,336.691 C 370.21349,331.29625 370.06093,323.86325 370.03137,208.41857 C 370.00386,100.99331 370.27281,85.219754 372.21104,80.580926 C 375.16057,73.521683 379.51286,68.999168 386.42857,65.807368 C 391.84457,63.307683 398.59214,63.170054 515.71429,63.170054 C 632.83643,63.170068 639.584,63.307697 645,65.807368 C 651.91571,68.999154 656.268,73.521697 659.21757,80.580926 C 661.15471,85.217311 661.42857,101.01078 661.42857,208.10731 C 661.42857,342.87018 661.88157,335.91878 652.46657,345.64645 C 643.68829,354.71627 646.32486,354.54781 515.09786,354.4231 C 449.82971,354.36111 395.78571,354.09587 395,353.83377 L 395,353.8338 z M 547.14286,208.10731 L 547.14286,90.250168 L 537.27857,90.250168 L 527.41414,90.250168 L 523.67314,96.634097 C 514.82586,111.73074 492.13043,131.51145 470.00671,143.40824 L 458.61157,149.53588 L 458.59143,163.46445 C 458.57686,173.65627 459.05043,177.3978 460.35714,177.4108 C 464.05643,177.44758 494.03243,161.2795 505.35714,153.1392 L 517.14286,144.66758 L 517.14286,235.31604 L 517.14286,325.96445 L 532.14286,325.96445 L 547.14286,325.96445 L 547.14286,208.10731 z"
       id="path3625" />
    <path
       style="opacity:1;fill:#c2ddb2;fill-opacity:1;fill-rule:evenodd;stroke:none;stroke-width:10;stroke-linecap:butt;stroke-linejoin:miter;stroke-miterlimit:4;stroke-dasharray:none;stroke-opacity:1;filter:url(#filter4337)"
       d="M 199.83581,659.70783 C 191.70373,656.80177 186.20674,652.16953 182.97976,645.50345 C 180.02979,639.40957 180,638.11771 180,516.18183 C 180,408.24438 180.27339,392.36124 182.21104,387.72378 C 185.16057,380.66458 189.51289,376.14203 196.42857,372.95023 C 201.84304,370.45134 208.63339,370.31127 325.84674,370.28154 L 449.55057,370.25017 L 455.84671,373.57537 C 459.98129,375.75897 463.61429,379.27601 466.42857,383.81965 L 470.71429,390.73871 L 471.10271,512.72601 C 471.37914,599.59921 471.02914,636.42833 469.88657,640.67145 C 467.81214,648.3749 458.34129,657.95904 450.70957,660.07774 C 441.88629,662.52725 206.75507,662.18053 199.83581,659.70785 L 199.83581,659.70783 z M 398.57143,618.8216 L 398.57143,604.53588 L 344.91124,604.53588 L 291.25104,604.53588 L 295.83889,598.14743 C 300.97349,590.99763 312.22643,579.97928 343.30606,551.66988 C 367.17766,529.92604 383.18243,511.59324 389.76843,498.44925 C 407.11986,463.8198 398.113,425.71388 368.34296,407.80341 C 357.75844,401.43547 344.9076,398.43004 328.42226,398.4671 C 291.21331,398.55077 267.0224,417.41153 259.2362,452.409 C 257.93786,458.24488 257.14841,463.84297 257.48191,464.84921 C 257.86977,466.01955 263.00874,467.20463 271.74577,468.1384 L 285.40327,469.59805 L 287.02123,459.80068 C 288.9832,447.92075 292.3134,441.06315 299.51979,434.0636 C 307.60404,426.21138 318.20626,422.6832 331.42857,423.44513 C 344.32677,424.18843 351.29559,427.40103 359.63523,436.44847 C 370.9713,448.74671 372.74413,466.19534 364.44834,483.8216 C 356.73491,500.21054 343.95463,514.24014 301.9832,552.39303 C 269.49119,581.92893 255.26734,602.83818 252.17806,625.60731 L 251.16046,633.10731 L 324.86599,633.10731 L 398.57143,633.10731 L 398.57143,618.8216 z"
       id="path3627" />
    <path
       style="opacity:1;fill:#000000;fill-opacity:1;fill-rule:evenodd;stroke:none;stroke-width:10;stroke-linecap:butt;stroke-linejoin:miter;stroke-miterlimit:4;stroke-dasharray:none;stroke-opacity:1;filter:url(#filter4341)"
       d="M 247.85714,660.41601 C 200.28751,659.55404 199.17574,659.46751 193.95413,656.22088 C 191.02177,654.39763 187.16461,650.86191 185.3827,648.36374 C 182.2064,643.91067 182.12221,642.78507 181.09036,590.96445 C 179.85149,528.74645 181.09971,396.09553 182.99444,388.61838 C 184.86197,381.24844 193.76796,373.55078 201.67447,372.47277 C 205.07496,372.0091 261.73244,371.15867 327.58004,370.58284 C 455.45671,369.46461 449.44786,369.20668 458.44086,376.19945 C 460.33343,377.67103 463.72229,381.37771 465.97186,384.43655 L 470.06186,389.9981 L 470.01557,514.51034 C 469.96514,650.88238 470.467,642.6506 461.62257,652.1529 C 454.35386,659.96254 454.86857,659.91347 372.66617,660.6308 C 330.73547,660.99673 274.57143,660.90003 247.85714,660.41598 L 247.85714,660.41601 z M 398.57143,618.8216 L 398.57143,604.53588 L 345.71429,604.53588 C 304.89859,604.53588 292.85714,604.13641 292.85714,602.78237 C 292.85714,601.03454 348.18953,546.05874 349.06629,546.9355 C 349.32004,547.1892 353.89386,542.73524 359.23039,537.03778 C 364.56696,531.3403 370.78036,524.71748 373.03801,522.3204 C 375.29571,519.9233 377.14286,517.19115 377.14286,516.24897 C 377.14286,515.30677 377.75486,514.53588 378.50286,514.53588 C 380.241,514.53588 389.04757,501.80284 389.04757,499.28957 C 389.04757,498.24647 389.62129,497.39303 390.32243,497.39303 C 391.02357,497.39303 391.19986,496.75017 390.71429,495.96445 C 390.22871,495.17874 390.61929,494.53588 391.58229,494.53588 C 392.54543,494.53588 392.91029,494.11288 392.39329,493.5959 C 391.87629,493.07894 392.16929,491.79318 393.04443,490.73875 C 393.91957,489.68435 394.07471,488.81175 393.38914,488.79973 C 392.70371,488.78771 392.92329,488.2819 393.87714,487.67573 C 394.83114,487.06958 396.04414,484.02584 396.57286,480.9119 C 398.02857,472.33778 398.00714,448.48791 396.54071,445.25017 C 395.829,443.67874 395.11086,441.91088 394.94486,441.3216 C 394.77871,440.73231 394.48214,439.92874 394.28571,439.53588 C 394.08929,439.14303 393.81657,438.33945 393.67971,437.75017 C 392.69557,433.51194 391.01671,430.25017 389.81943,430.25017 C 389.04029,430.25017 388.76571,429.66298 389.20929,428.94531 C 390.261,427.24358 376.03514,411.67874 373.42809,411.67874 C 372.32836,411.67874 371.42857,411.0524 371.42857,410.28685 C 371.42857,408.64448 362.86734,403.9459 362.83527,405.57063 C 362.82326,406.18011 362.31319,405.8914 361.70183,404.9291 C 361.09046,403.96677 359.33246,402.98391 357.79513,402.74491 C 356.2578,402.50588 354.19643,401.80888 353.21429,401.19595 C 352.23214,400.58304 350.83013,400.4514 350.09871,400.90344 C 349.3673,401.35551 348.42823,401.1742 348.0119,400.50058 C 346.83877,398.60244 329.55709,397.86874 317.85714,399.22037 C 308.94204,400.25033 306.04066,400.87617 304.90169,402.01515 C 304.40931,402.5076 303.10494,402.56454 302.00319,402.14175 C 300.90146,401.71898 300,402.12264 300,403.03878 C 300,403.95493 299.51149,404.40258 298.91441,404.03358 C 297.25529,403.00821 288.57143,407.04105 288.57143,408.83694 C 288.57143,409.70695 287.92403,410.01867 287.13277,409.52964 C 286.34153,409.04065 285.30986,409.64184 284.84021,410.8657 C 284.37063,412.0896 283.46784,412.77047 282.83414,412.37881 C 279.96723,410.60695 260.67463,438.24548 261.65109,442.72563 C 261.78246,443.32837 261.1317,445.66175 260.20496,447.91084 C 259.27819,450.1599 258.63627,452.73135 258.77841,453.62513 C 258.92054,454.51887 258.5159,457.11805 257.8792,459.40101 C 256.97516,462.64251 257.28326,463.9626 259.28551,465.42668 C 260.69567,466.45785 262.4258,466.94533 263.13019,466.51 C 263.8346,466.07464 265.18629,466.32843 266.134,467.0739 C 267.0817,467.81937 271.8361,468.82508 276.69927,469.3088 C 286.56,470.28958 286.08759,470.73088 287.9271,458.8216 C 290.16727,444.31857 300.45517,430.88214 312.44857,426.79557 C 320.10593,424.18644 335.32724,423.84941 343.46493,426.10877 C 351.08114,428.22338 364.51003,441.77641 366.84157,449.70163 C 369.26677,457.94531 368.91697,469.70153 365.9963,478.10731 C 361.15549,492.03935 352.89384,501.88904 312.62084,541.74258 C 290.75081,563.38487 272.85714,581.50588 272.85714,582.01157 C 272.85714,582.51725 270.96314,585.00463 268.64827,587.5391 C 262.17403,594.62754 254.4381,611.26807 252.27926,622.75017 L 250.33194,633.10731 L 324.45164,633.10731 L 398.57143,633.10731 L 398.57143,618.8216 z"
       id="path3641" />
  </g>
  <g
     inkscape:groupmode="layer"
     id="layer2"
     inkscape:label="tiles"
     style="opacity:0.98999999;display:inline">
    <path
       style="opacity:1;fill:#b3b3b3;fill-opacity:1;fill-rule:evenodd;stroke:none;stroke-width:10;stroke-linecap:butt;stroke-linejoin:miter;stroke-miterlimit:4;stroke-dasharray:none;stroke-opacity:1;display:inline"
       d="M 78.867396,347.74961 C 71.137758,345.9162 63.36506,339.81669 60.061098,332.99164 L 57,326.6682 L 57.38116,200.77179 L 57.762289,74.875377 L 61.084689,70.217276 C 62.912056,67.655319 66.728766,63.788236 69.566289,61.623759 L 74.72545,57.688344 L 200.96546,57.307594 L 327.20556,56.926844 L 333.5609,60.2833 C 337.75037,62.495972 341.38027,66.003931 344.21284,70.577502 L 348.5096,77.515262 L 348.5096,202.23355 L 348.5096,326.95188 L 345.30021,332.95599 C 341.25696,340.52026 334.52681,345.70331 326.28103,347.60331 C 318.71459,349.34676 86.180553,349.48421 78.867386,347.7496 L 78.867396,347.74961 z M 221.09628,318.31473 C 247.21918,311.60683 266.59945,292.81641 274.06411,266.95902 C 277.40446,255.38815 276.42691,234.16142 272.03166,222.82476 C 267.58493,211.35531 258.03541,201.25353 246.3823,195.69202 C 237.97084,191.67758 237.188,190.97107 239.61859,189.58775 C 245.81152,186.06316 256.62944,174.76701 259.79578,168.5185 C 269.77476,148.82594 265.53369,122.76141 249.57422,105.69945 C 236.69035,91.925516 220.94404,85.617273 199.44622,85.617273 C 170.94259,85.617273 149.94257,98.23354 138.81896,122.04057 C 134.9313,130.3611 130.82685,144.12059 131.90957,145.20333 C 132.58617,145.87994 154.50826,150.0681 157.37499,150.06841 C 158.89592,150.0686 160.56254,146.77832 162.67018,139.61448 C 166.26397,127.39918 174.51016,116.85092 183.74509,112.65602 C 192.4179,108.71644 207.57451,109.05923 216.90997,113.40608 C 232.17447,120.51361 239.47923,138.44011 234.47579,156.5138 C 230.84323,169.6356 212.2167,181.46233 194.4056,181.956 L 186.18337,182.18389 L 185.29634,188.68424 C 184.80844,192.25945 184.03026,197.97544 183.56701,201.38641 L 182.72477,207.58819 L 189.70779,206.39932 C 214.17188,202.23409 232.26612,210.00035 241.39129,228.58246 C 244.87622,235.67899 245.38376,238.3689 245.35896,249.61022 C 245.33523,260.34539 244.74426,263.69779 241.82405,269.66176 C 226.4617,301.03651 184.80237,305.52432 167.11947,277.70943 C 164.80636,274.07094 161.58881,266.74354 159.96934,261.4263 C 157.88445,254.58084 156.33388,251.75807 154.65791,251.75677 C 147.46325,251.75121 128.66178,255.27853 128.67997,256.63047 C 128.69163,257.49575 129.6745,262.3331 130.86415,267.38008 C 136.60681,291.74268 155.87562,311.77053 179.95192,318.40167 C 189.35738,320.99218 210.84636,320.94674 221.09626,318.31475 L 221.09628,318.31473 z"
       id="path2820" />
    <path
       style="opacity:1;fill:#b3b3b3;fill-opacity:1;fill-rule:evenodd;stroke:none;stroke-width:10;stroke-linecap:butt;stroke-linejoin:miter;stroke-miterlimit:4;stroke-dasharray:none;stroke-opacity:1;display:inline"
       d="M 387.08089,347.80669 C 380.1008,346.1366 373.82295,341.78749 369.60281,335.69844 L 365.69663,330.06237 L 365.26911,206.04952 C 364.97464,120.62881 365.32081,80.385311 366.38154,76.730244 C 368.38511,69.826228 373.98207,63.281964 380.90343,59.750945 C 386.30718,56.994116 389.46229,56.935423 512.23758,57.307307 L 638.03506,57.688344 L 643.98864,61.628658 C 647.26306,63.795799 651.40513,68.307395 653.19302,71.654412 L 656.44394,77.739882 L 656.83352,199.36436 C 657.27437,336.9711 657.62297,331.96418 646.96529,341.08683 C 643.23141,344.28283 638.50727,346.67143 634.01458,347.63495 C 625.897,349.37588 394.31248,349.53697 387.08103,347.80673 L 387.08089,347.80669 z M 542.23024,202.70394 L 541.86373,84.901146 L 532.42604,84.4829 L 522.98863,84.064639 L 518.96214,90.21191 C 507.51114,107.69451 489.76868,123.36056 466.31239,136.70022 L 452.34793,144.64185 L 452.34793,158.09715 C 452.34793,169.96108 452.64441,171.55115 454.85437,171.5414 C 460.28547,171.51747 490.91118,154.47786 507.84772,142.05689 L 511.07029,139.69351 L 511.07029,230.10011 L 511.07029,320.50673 L 526.83352,320.50673 L 542.59646,320.50673 L 542.23024,202.70394 z"
       id="path2822" />
    <path
       style="opacity:1;fill:#b3b3b3;fill-opacity:1;fill-rule:evenodd;stroke:none;stroke-width:10;stroke-linecap:butt;stroke-linejoin:miter;stroke-miterlimit:4;stroke-dasharray:none;stroke-opacity:1;display:inline"
       d="M 194.54243,655.40334 C 187.05761,653.2764 180.21519,647.41384 177.16217,640.51199 C 174.55122,634.60956 174.45977,629.43539 174.82594,508.36383 L 175.20702,382.35866 L 179.58682,376.85518 C 181.99568,373.82826 186.80497,369.90155 190.27412,368.12913 L 196.58163,364.90657 L 320.30969,364.90657 C 455.76127,364.90657 448.66102,364.47473 457.43271,373.24645 C 466.4728,382.28658 465.91494,373.99698 466.35937,505.88792 C 466.63522,587.73771 466.27228,628.4731 465.22187,633.53273 C 464.19868,638.4612 461.98326,642.94511 458.64368,646.84667 C 449.56062,657.45806 454.45835,657.10287 319.24653,656.95696 C 244.61205,656.87643 197.66826,656.29156 194.54243,655.40331 L 194.54243,655.40334 z M 393.62556,614.11855 L 393.62556,599.79602 L 339.86567,599.79602 L 286.10582,599.79602 L 287.806,596.57346 C 289.79293,592.80731 310.8528,571.79357 341.99228,542.50592 C 367.29545,518.70753 377.03191,507.48169 384.19819,493.84448 C 406.1456,452.07834 386.98349,404.85602 344.04384,394.89018 C 334.61474,392.70178 312.76586,392.74581 303.25423,394.97241 C 278.09765,400.86135 260.17231,419.22997 253.9889,445.45608 C 250.0308,462.24389 249.65563,461.69288 266.05479,463.17957 L 280.27707,464.46895 L 281.25597,456.03418 C 282.69178,443.66351 289.56805,431.22347 298.15723,425.45782 C 306.54188,419.82948 313.01995,417.91839 323.74953,417.90791 C 335.40707,417.89657 346.23504,422.33405 353.32928,430.0303 C 361.28243,438.65848 363.85748,445.2716 363.94256,457.28688 C 364.10669,480.46425 352.25652,496.95062 304.34805,540.19643 C 290.03768,553.11406 274.78439,567.96116 270.45183,573.19002 C 256.71472,589.769 246.10353,612.70354 246.10353,625.81545 C 246.10353,628.32742 249.29524,628.44107 319.86454,628.44107 L 393.62556,628.44107 L 393.62556,614.11855 z"
       id="path2824" />
    <path
       style="opacity:1;fill:#c2ddb2;fill-opacity:1;fill-rule:evenodd;stroke:none;stroke-width:10;stroke-linecap:butt;stroke-linejoin:miter;stroke-miterlimit:4;stroke-dasharray:none;stroke-opacity:1"
       d="M 83.714286,346.94254 C 73.076943,345.78543 67.8783,342.88667 62.076228,334.87713 L 58,329.25001 L 58,201.67114 L 58,74.09224 L 65.594514,66.31344 L 73.189028,58.534683 L 199.52309,57.948126 L 325.85714,57.36154 L 332.30873,60.708183 C 336.29699,62.777026 340.52427,66.639768 343.38017,70.824854 L 348,77.594868 L 348,202.43988 L 348,327.28485 L 344.39064,333.44383 C 342.16264,337.24557 338.19863,341.12093 334.03346,343.56934 L 327.28571,347.53588 L 210.14286,347.74418 C 145.71429,347.85881 88.821428,347.49804 83.714286,346.9425 L 83.714286,346.94254 z M 228.71996,316.17193 C 253.02196,307.1586 271.27166,285.43504 275.55657,260.41988 C 277.69997,247.90675 275.2828,228.38251 270.40287,218.79211 C 266.12357,210.38213 258.12866,202.13375 249.42857,197.15288 C 238.71919,191.02167 238.78276,191.55444 247.76786,183.23583 C 252.29207,179.04717 257.8916,172.194 260.21117,168.00655 C 264.13087,160.93054 264.42857,159.33403 264.42857,145.39303 C 264.42857,131.45415 264.10236,129.7043 259.81729,120.65724 C 248.3108,96.36364 224.81216,83.897297 194.02301,85.752526 C 165.33896,87.480911 145.34661,102.24703 136.10701,128.52858 C 129.9821,145.95047 129.98041,145.04921 136.1417,146.68813 C 147.0847,149.59901 157.96007,150.74015 159.18399,149.10597 C 159.83073,148.24243 161.77139,143.74594 163.49654,139.11378 C 167.84234,127.44497 175.38363,117.65148 182.78037,114.07077 C 190.85371,110.16253 207.59914,110.01157 215.85714,113.77254 C 223.20543,117.11921 231.67491,126.53301 233.61126,133.5062 C 240.51206,158.35737 224.644,178.35454 195.99109,180.91575 L 185.85714,181.8216 L 183.95991,194.44815 C 182.9164,201.39275 182.3112,207.32328 182.61501,207.6271 C 182.9188,207.93093 187.30831,207.50811 192.36941,206.68755 C 209.107,203.9739 223.85444,208.43325 233.79044,219.21254 C 242.42733,228.58243 244.23501,233.84418 244.25734,249.67874 C 244.2741,261.55304 243.81016,264.1434 240.54739,270.39303 C 235.77154,279.54093 227.75889,287.24031 218.71429,291.3726 C 208.78501,295.90903 191.28139,295.99245 182.90256,291.54318 C 173.93169,286.77951 167.55666,278.5918 161.56666,264.14045 L 156.10356,250.96017 L 148.1232,251.87548 C 138.1465,253.01977 129.77904,255.09878 128.8046,256.67545 C 127.52421,258.74713 132.13619,274.27817 136.78976,283.56595 C 145.13657,300.22483 165.36967,315.73715 183.86904,319.66065 C 195.17777,322.05907 217.53581,320.32 228.71993,316.17194 L 228.71996,316.17193 z"
       id="path3629" />
    <path
       style="opacity:1;fill:#c2ddb2;fill-opacity:1;fill-rule:evenodd;stroke:none;stroke-width:10;stroke-linecap:butt;stroke-linejoin:miter;stroke-miterlimit:4;stroke-dasharray:none;stroke-opacity:1"
       d="M 390.85714,346.9476 C 381.39429,345.88477 374.88014,342.22903 370.06293,335.27768 L 366.47647,330.10241 L 366.16677,203.81914 C 365.8839,88.449226 366.06217,77.165511 368.2296,73.250168 C 371.3647,67.586826 377.74929,61.653683 382.73586,59.769626 C 385.46643,58.737911 427.22914,58.250168 512.83586,58.250168 L 638.91429,58.250168 L 644.935,63.403668 C 648.24643,66.238083 652.26871,71.130954 653.87357,74.276711 C 656.757,79.92864 656.78543,81.451897 656.28357,203.0518 C 655.71157,341.61501 656.374,333.56161 644.87729,341.7173 C 639.769,345.34103 637.155,346.04625 625.27714,347.00507 C 609.25243,348.29864 402.43443,348.24794 390.85714,346.94761 L 390.85714,346.9476 z M 542.977,300.03588 C 542.96429,288.83945 542.80357,235.64303 542.61986,181.8216 L 542.28571,83.964454 L 532.56129,83.964454 L 522.83671,83.964454 L 516.17529,93.036897 C 503.93257,109.71065 487.70857,123.38793 462.59343,138.20803 L 452.18686,144.3488 L 452.59357,158.0852 C 452.97257,170.8936 453.193,171.79393 455.85714,171.41198 C 460.83386,170.69851 481.05286,160.15085 495.85714,150.54518 L 510.14286,141.27603 L 510.51057,231.23833 L 510.87843,321.2007 L 526.93914,320.79681 L 543,320.39303 L 542.977,300.03588 z"
       id="path3631" />
    <path
       style="opacity:1;fill:#c2ddb2;fill-opacity:1;fill-rule:evenodd;stroke:none;stroke-width:10;stroke-linecap:butt;stroke-linejoin:miter;stroke-miterlimit:4;stroke-dasharray:none;stroke-opacity:1"
       d="M 227.17637,655.44298 C 192.90473,654.68148 192.7608,654.66511 187.04253,650.87765 C 183.88616,648.78707 180.07821,644.60848 178.58041,641.59194 C 175.97343,636.34158 175.83969,630.71593 175.4484,509.88124 L 175.03961,383.65518 L 178.84996,378.65954 C 180.94566,375.91198 185.6296,371.7684 189.25873,369.4516 L 195.85714,365.23921 L 320.14286,365.67963 C 456.97557,366.1645 449.65329,365.67217 458.39271,374.97518 C 461.21943,377.98431 462.754,381.62098 463.74157,387.65114 C 464.55629,392.62528 465.12971,445.0116 465.13457,514.87275 L 465.14286,633.63818 L 461.167,641.24883 C 454.98957,653.07367 452.04057,654.20474 423.91429,655.53677 C 398.36143,656.74687 283.394,656.69211 227.1764,655.44298 L 227.17637,655.44298 z M 393.71429,613.98163 L 393.71429,599.7131 L 339.78571,599.33877 L 285.85714,598.96445 L 328.23873,556.8216 C 351.54861,533.64303 372.96971,511.51557 375.84114,507.64948 C 399.45086,475.8614 399.646,438.76943 376.33786,413.26663 C 350.70949,385.22501 296.74434,385.47931 270.55673,413.76505 C 261.64966,423.38574 256.6346,433.17218 253.05776,447.9126 C 249.90429,460.90838 250.65874,462.02108 263.44556,463.23287 C 268.7005,463.73084 274.65201,464.44628 276.67114,464.82265 C 280.18584,465.47775 280.41681,465.10251 282.09131,456.01461 C 284.48897,443.00235 288.59426,434.94167 296.26077,428.19333 C 311.55741,414.7287 336.71046,415.27584 351.33533,429.39135 C 360.02527,437.77861 362.81777,444.39324 362.91563,456.8216 C 363.10191,480.47508 355.86091,490.76808 305.53464,538.38834 C 271.74803,570.35828 263.56681,579.86158 254.59127,597.56417 C 249.24711,608.10457 244.376,624.42505 245.85836,626.82355 C 246.42686,627.74345 272.8439,628.25017 320.22717,628.25017 L 393.71429,628.25017 L 393.71429,613.98163 z"
       id="path3633" />
    <path
       style="opacity:1;fill:#008000;fill-opacity:1;fill-rule:evenodd;stroke:none;stroke-width:10;stroke-linecap:butt;stroke-linejoin:miter;stroke-miterlimit:4;stroke-dasharray:none;stroke-opacity:1"
       d="M 99.428571,346.91647 C 72.840057,346.00375 69.025628,344.72087 61.770028,334.25104 L 58,328.81091 L 58,201.4543 L 58,74.097683 L 65.5,66.293511 L 73,58.48934 L 199.5843,57.684283 L 326.16869,56.879268 L 332.96887,61.38354 C 336.70897,63.860883 341.62103,68.444368 343.88453,71.56904 L 348,77.250283 L 348,202.1069 C 348,339.1075 348.56839,330.25641 339.19331,339.2492 C 329.40426,348.63904 334.19769,348.27731 223.40303,347.98785 C 168.18139,347.84353 112.39286,347.36143 99.428571,346.91643 L 99.428571,346.91647 z M 225.20214,316.78105 C 251.95959,308.999 272.34174,284.73838 275.87401,256.467 C 277.09889,246.66378 274.33199,228.10455 270.39793,219.73523 C 266.93424,212.36648 257.53759,202.48334 247.54957,195.70387 L 240.67054,191.03468 L 249.27711,181.64211 C 259.37136,170.62608 263.16683,163.33634 264.43161,152.53588 C 268.28019,119.67118 245.46434,91.394997 211.22884,86.600526 C 174.44089,81.448583 146.80686,97.919597 135.0869,131.98423 C 133.54626,136.46223 132.28571,141.28088 132.28571,142.69238 C 132.28571,145.6387 138.52246,147.80638 150.88194,149.15575 L 158.7639,150.01627 L 163.68847,138.81047 C 172.38866,119.01338 182.8005,111.1344 200.28683,111.11528 C 213.98516,111.1003 223.77749,116.55955 230.46814,127.94144 C 233.77747,133.57114 234.42857,136.32268 234.42857,144.67874 C 234.42857,153.0358 233.77763,155.7861 230.46649,161.41888 C 228.28731,165.12594 223.67976,170.10244 220.2274,172.47771 C 213.75496,176.93084 200.69067,181.09074 193.057,181.12918 C 186.52359,181.16208 185.57407,182.4275 184.49757,192.53588 C 183.95371,197.64303 183.18787,202.95394 182.79576,204.33791 C 182.1452,206.6339 183.38507,206.83675 196.95443,206.65465 C 210.3778,206.47451 212.68686,206.8414 220.66576,210.42213 C 230.25996,214.72775 236.87689,221.19168 241.0137,230.29963 C 243.00843,234.69147 243.65919,239.60537 243.68291,250.45623 C 243.71283,264.13008 243.49587,265.16947 239.07143,272.54955 C 233.78254,281.37157 223.36407,289.89603 214.64913,292.53198 C 205.14559,295.4065 190.52891,294.752 183.01724,291.11565 C 174.45327,286.9699 169.39656,280.51991 162.00029,264.30797 L 155.85714,250.84273 L 150.14286,251.62031 C 147,252.04798 141.05357,253.12507 136.92857,254.01384 C 130.0824,255.4889 129.42857,255.97358 129.42857,259.57347 C 129.42857,264.27645 133.5312,276.6278 138.02763,285.46174 C 145.88251,300.89394 168.4537,316.9129 186.11046,319.58654 C 197.29169,321.27958 213.81056,320.09411 225.20219,316.78101 L 225.20214,316.78105 z"
       id="path3635" />
    <path
       style="opacity:1;fill:#008000;fill-opacity:1;fill-rule:evenodd;stroke:none;stroke-width:10;stroke-linecap:butt;stroke-linejoin:miter;stroke-miterlimit:4;stroke-dasharray:none;stroke-opacity:1"
       d="M 403.71429,346.84323 C 393.10714,346.35744 382.79657,345.25714 380.80186,344.39807 C 378.80714,343.53901 374.776,340.18054 371.84366,336.93481 L 366.51214,331.03345 L 366.89893,202.79258 C 367.33089,59.576811 366.43174,71.432711 377.50143,62.98814 L 382.776,58.964454 L 510.91871,58.489768 L 639.06143,58.015054 L 644.19014,62.518226 C 647.011,64.994968 650.79014,69.387154 652.58814,72.27864 L 655.85714,77.535883 L 656.27286,169.08173 C 656.75214,274.61224 655.35014,328.0857 651.93057,334.69841 C 650.70871,337.06161 646.94029,340.55111 643.55671,342.45277 C 637.94271,345.60811 635.152,346.00405 611.631,346.98237 C 581.55314,348.23341 431.88471,348.13323 403.71429,346.84318 L 403.71429,346.84323 z M 542.28571,202.53588 L 542.28571,83.964454 L 532.47557,83.964454 L 522.66529,83.964454 L 518.94171,89.591326 C 509.05629,104.5291 477.19429,131.28187 456.92857,141.66017 L 452.28571,144.03783 L 452.30757,155.78684 C 452.33629,171.21067 453.05586,172.2925 461.21386,169.17691 C 467.68543,166.70538 496.06214,150.84181 503.55329,145.50763 C 505.84871,143.87315 508.43114,142.53588 509.292,142.53588 C 510.40986,142.53588 510.85714,168.05477 510.85714,231.8216 L 510.85714,321.10731 L 526.57143,321.10731 L 542.28571,321.10731 L 542.28571,202.53588 z"
       id="path3637" />
    <path
       style="opacity:1;fill:#b3b3b3;fill-opacity:1;fill-rule:evenodd;stroke:none;stroke-width:10;stroke-linecap:butt;stroke-linejoin:miter;stroke-miterlimit:4;stroke-dasharray:none;stroke-opacity:1"
       d="M 248.71429,655.48667 C 215.49101,654.863 193.04289,653.87151 190.85714,652.93124 C 186.10456,650.88677 179.99677,644.26387 177.9766,638.96445 C 176.81949,635.92911 176.10281,598.12574 175.52006,509.39143 L 174.69721,384.10414 L 178.43091,379.20903 C 180.48439,376.51675 185.24537,372.24794 189.01083,369.72278 L 195.85714,365.13163 L 318,365.82481 C 454.07786,366.59708 450.90529,366.37328 458.45171,375.73264 C 462.60786,380.88738 462.79543,381.75298 463.86614,400.73264 C 464.47614,411.54585 465.013,468.57607 465.059,527.46645 L 465.14286,634.53984 L 460.70671,641.8597 C 455.25586,650.85337 453.40243,652.05178 442.022,653.94145 C 430.28543,655.89024 318.01893,656.78764 248.71429,655.48665 L 248.71429,655.48667 z M 393.71429,613.98163 L 393.71429,599.7131 L 340.19709,599.33877 L 286.67981,598.96445 L 329.68056,555.39303 C 375.98929,508.4698 383.67586,498.906 389.52771,480.92975 C 393.73314,468.01133 394.11543,450.22961 390.44914,438.07548 C 384.68014,418.95105 368.24314,402.50118 348.89897,396.49281 C 334.26544,391.9476 312.73034,392.07278 298.08756,396.78824 C 284.68207,401.10528 272.27406,410.3411 264.45623,421.8216 C 255.08649,435.5811 248.95771,459.52455 254.28247,461.56785 C 255.94214,462.20471 274.31499,464.5367 278.53631,464.64628 C 279.22411,464.66411 281.03297,459.85731 282.55594,453.96445 C 287.5135,434.78224 295.93804,424.95587 311.35021,420.37894 C 321.03179,417.50387 327.85264,417.70064 336.98833,421.11874 C 346.81834,424.79661 355.48441,432.24547 359.4402,440.41704 C 362.10849,445.92897 362.48857,448.77211 362.06579,460.05607 C 361.2542,481.71608 360.21936,483.19144 311.22456,532.53588 C 262.26023,581.84961 256.92866,588.59364 249.2398,610.9417 C 245.3183,622.3397 245.63951,626.49064 250.5,627.22695 C 252.66071,627.55427 285.76786,627.9184 324.07143,628.03613 L 393.71429,628.25017 L 393.71429,613.98163 z"
       id="path3639" />
    <path
       style="opacity:1;fill:#008000;fill-opacity:1;fill-rule:evenodd;stroke:none;stroke-width:10;stroke-linecap:butt;stroke-linejoin:miter;stroke-miterlimit:4;stroke-dasharray:none;stroke-opacity:1"
       d="M 226.57143,655.4552 C 194.81023,654.72061 192.71727,654.50294 187.75676,651.41833 C 184.873,649.62511 181.01583,645.76797 179.18533,642.8469 L 175.85714,637.53588 L 175.44184,510.60413 L 175.02654,383.67235 L 178.84341,378.66817 C 180.94271,375.91585 185.6296,371.77977 189.25873,369.47687 L 195.85714,365.28978 L 315.85714,365.95594 C 446.72186,366.68244 443.48,366.63561 446.57143,367.84405 C 447.75,368.3048 449.627,368.86518 450.74257,369.08941 C 451.858,369.31367 455.04871,371.7751 457.833,374.5593 C 462.07829,378.8046 462.85843,380.54233 462.66757,385.32777 C 462.54243,388.46618 463.04814,391.40991 463.79143,391.86928 C 464.62386,392.38375 465.13771,439.16385 465.12943,513.69163 L 465.116,634.67874 L 460.83243,642.14787 C 454.36986,653.41655 451.86871,654.25393 420.85714,655.53131 C 391.86543,656.72551 279.59257,656.68154 226.57143,655.45521 L 226.57143,655.4552 z M 393.71429,613.98163 L 393.71429,599.7131 L 339.78571,599.33877 L 285.85714,598.96445 L 330.18227,553.96445 C 354.56107,529.21445 376.87314,505.3607 379.76486,500.9561 C 405.47786,461.7886 392.69057,413.56717 352.38374,397.70077 C 342.94004,393.98333 325.45283,392.40768 311.83471,394.04717 C 289.8478,396.69414 270.14646,409.84594 260.98994,427.98887 C 256.00687,437.86247 252.28571,449.98263 252.28571,456.33938 C 252.28571,461.94313 253.73431,462.50567 269.30677,462.94877 L 279.89924,463.25017 L 281.85507,456.10731 C 282.93081,452.17874 284.08554,447.77801 284.42117,446.32793 C 284.75681,444.87784 286.66299,440.9073 288.65714,437.50453 C 301.12359,416.23213 331.10456,411.79044 349.99393,428.41753 C 359.96301,437.1927 362.80643,443.69905 362.71919,457.53588 C 362.60411,475.79205 357.13249,486.3861 338.65451,504.12955 C 333.64319,508.94177 329.6382,513.2839 329.75464,513.77884 C 329.87107,514.2738 315.83061,528.8216 298.55357,546.10731 C 264.95267,579.72508 257.93786,588.68387 250.87487,606.99881 C 245.41689,621.15193 245.57631,625.73111 251.57143,627.00294 C 253.92857,627.50298 286.875,627.98818 324.78571,628.08115 L 393.71429,628.25017 L 393.71429,613.98163 z"
       id="path3643" />
  </g>
  <path
     style="opacity:1;fill:#008000;fill-opacity:1;fill-rule:evenodd;stroke:none;stroke-width:10;stroke-linecap:butt;stroke-linejoin:miter;stroke-miterlimit:4;stroke-dasharray:none;stroke-opacity:1"
     d="M 261.95688,655.31117 C 223.89905,654.86493 198.75027,654.16927 195.2965,653.46724 C 188.98051,652.18341 184.20306,648.77055 179.48562,642.17234 L 176.31131,637.73252 L 175.95007,510.55805 L 175.58884,383.38352 L 180.00702,378.43331 C 182.43698,375.71072 187.04734,371.70243 190.25223,369.52603 L 196.07933,365.56892 L 320.18436,366.50505 C 414.65988,367.21768 445.23099,367.74323 448.23323,368.70638 C 450.40234,369.40226 454.3334,372.07195 456.96895,374.63905 C 461.33622,378.89292 461.81738,379.83589 462.39882,385.2809 C 463.62165,396.73273 464.76765,474.64876 464.88219,554.1291 L 464.99754,634.17041 L 460.71339,641.32287 C 455.79156,649.54006 452.75743,651.75807 444.28941,653.3292 C 432.89972,655.44238 349.99804,656.34356 261.95688,655.3112 L 261.95688,655.31117 z M 393.78179,613.99394 L 393.78179,599.34672 L 340.6182,598.84165 L 287.45466,598.33657 L 323.85092,560.96093 C 371.35468,512.17891 379.88032,502.68151 384.4083,493.50115 C 392.93468,476.2142 395.40789,458.20825 391.42137,442.44371 C 388.08904,429.26619 383.86468,421.7266 374.60029,412.42172 C 362.33364,400.10148 352.87106,395.75628 333.82866,393.69952 C 315.61105,391.73181 297.89922,395.08224 284.38122,403.05308 C 274.74118,408.73732 265.05351,419.24246 260.12236,429.35902 C 255.83299,438.159 251.85535,451.21747 251.85535,456.49957 C 251.85535,458.0378 252.53304,459.97399 253.36135,460.80228 C 255.13659,462.57748 264.87734,463.75935 273.95811,463.30127 L 280.40351,462.97613 L 283.10485,453.29984 C 287.67767,436.91975 293.39682,429.16023 305.19132,423.33376 C 312.52952,419.7087 313.3243,419.53968 323.02226,419.54211 C 332.34642,419.54445 333.72959,419.80826 340.01523,422.78329 C 347.71323,426.4268 356.35773,434.4103 359.47254,440.75277 C 361.12359,444.11468 361.4569,446.91432 361.4569,457.42029 C 361.4569,471.39201 360.30531,475.91552 354.38488,485.19949 C 350.55222,491.20961 329.9325,513.5533 301.24883,542.77818 C 264.00757,580.72216 256.09054,590.92997 249.72922,609.20508 C 246.45569,618.60937 246.07787,623.22444 248.39197,625.53853 C 249.26505,626.41158 250.06052,627.2102 250.15974,627.31321 C 250.38023,627.5421 368.36167,628.76627 383.17518,628.69335 L 393.78179,628.64115 L 393.78179,613.99394 z"
     id="path4347" />
  <path
     style="opacity:1;fill:#008000;fill-opacity:1;fill-rule:evenodd;stroke:none;stroke-width:10;stroke-linecap:butt;stroke-linejoin:miter;stroke-miterlimit:4;stroke-dasharray:none;stroke-opacity:1"
     d=""
     id="path4349" />
  <path
     style="opacity:1;fill:#008000;fill-opacity:1;fill-rule:evenodd;stroke:none;stroke-width:10;stroke-linecap:butt;stroke-linejoin:miter;stroke-miterlimit:4;stroke-dasharray:none;stroke-opacity:1"
     d=""
     id="path4351" />
  <path
     style="opacity:1;fill:#008000;fill-opacity:1;fill-rule:evenodd;stroke:none;stroke-width:10;stroke-linecap:butt;stroke-linejoin:miter;stroke-miterlimit:4;stroke-dasharray:none;stroke-opacity:1"
     d="M 106.35878,345.93613 C 72.466947,344.95678 70.090018,344.3168 62.759175,334.19688 L 58.501632,328.3195 L 58.501632,201.30547 L 58.501632,74.291439 L 65.628975,66.755339 L 72.756218,59.219282 L 199.36685,58.269968 L 325.97739,57.320654 L 332.99949,62.475339 C 336.86162,65.310397 341.63148,69.740739 343.59918,72.320511 L 347.17682,77.011039 L 346.7678,202.52247 C 346.38862,318.8746 346.17645,328.36733 343.86028,332.60291 C 339.98562,339.68855 332.73989,344.3864 323.30226,345.93198 C 314.32158,347.4027 157.22055,347.40571 106.35878,345.93608 L 106.35878,345.93613 z M 222.03173,317.88083 C 255.2297,309.73714 279.84892,276.26215 276.37863,243.98488 C 274.10403,222.82905 268.11788,211.40658 252.78735,198.96957 C 248.46592,195.46378 244.7268,191.75291 244.4782,190.72318 C 244.22963,189.69345 247.3899,184.80998 251.50108,179.87101 C 260.36532,169.22188 263.81229,161.99444 265.03568,151.49241 C 268.36939,122.87383 247.55766,94.604425 217.86518,87.418954 C 208.66175,85.191739 189.68625,85.189839 180.64449,87.415182 C 165.31172,91.188868 151.82969,100.74277 143.75858,113.55403 C 136.26562,125.44751 130.62633,140.96587 132.62312,144.19675 C 134.11698,146.61377 140.62095,148.59303 150.34283,149.58905 L 159.35875,150.51275 L 163.26002,141.4162 C 168.63813,128.87581 175.91558,119.41945 183.13308,115.59297 C 187.92099,113.05457 191.53352,112.37081 200.1025,112.38108 C 209.69372,112.39258 211.814,112.90414 217.92188,116.68035 C 222.16092,119.30115 226.51008,123.64413 229.11513,127.8577 C 232.74188,133.72381 233.37013,136.16184 233.33892,144.2485 C 233.29766,154.93303 230.20823,162.44767 223.06936,169.22775 C 218.11655,173.9317 202.0295,180.17675 194.86522,180.17675 C 187.50012,180.17675 184.65546,183.91023 183.45102,195.15717 C 182.89019,200.3936 182.99365,205.20907 183.68082,205.85818 C 184.36798,206.50731 191.6802,207.29718 199.9302,207.61348 C 211.71529,208.06531 216.19059,208.84628 220.81088,211.25724 C 237.10198,219.75825 242.75216,229.69085 242.77339,249.8655 C 242.78956,265.2304 241.33163,269.55654 232.95979,278.98547 C 224.05609,289.01337 214.85662,293.0339 200.81503,293.0339 C 187.63706,293.0339 179.54896,289.95454 173.31912,282.56545 C 170.18523,278.84844 158.72743,257.28273 156.77586,251.428 C 156.09373,249.38145 132.97036,253.66721 130.30305,256.33453 C 127.64963,258.98797 130.0506,269.26391 136.42558,282.53843 C 145.1621,300.73033 167.69428,317.47538 186.69053,319.89341 C 197.51058,321.27068 211.44852,320.47698 222.03175,317.88084 L 222.03173,317.88083 z"
     id="path4397" />
  <path
     style="opacity:1;fill:#008000;fill-opacity:1;fill-rule:evenodd;stroke:none;stroke-width:10;stroke-linecap:butt;stroke-linejoin:miter;stroke-miterlimit:4;stroke-dasharray:none;stroke-opacity:1"
     d="M 224.21592,654.54007 C 189.52366,653.64561 187.36639,653.07255 179.90203,642.76831 L 175.64449,636.89088 L 175.64449,510.15504 C 175.64449,385.30494 175.68729,383.36481 178.52052,379.76293 C 180.1023,377.75197 184.6588,373.71193 188.64602,370.78505 L 195.89552,365.46344 L 318.98425,366.47271 C 386.6831,367.0278 444.34563,368.07587 447.12322,368.80175 C 449.90082,369.52767 454.34459,372.36168 456.99832,375.09963 C 461.5805,379.82731 461.87995,380.78095 462.95022,394.05581 C 463.57005,401.74377 464.1084,459.2291 464.14655,521.80103 L 464.21592,635.56817 L 459.57306,642.50245 C 457.01949,646.31634 453.05563,650.33237 450.76448,651.42695 C 448.01296,652.74153 437.58602,653.81507 420.05019,654.58933 C 391.38092,655.85515 274.07693,655.82568 224.21592,654.5401 L 224.21592,654.54007 z M 394.21592,613.74818 L 393.71084,600.26341 L 342.02974,600.01087 C 296.07625,600.01087 286.05548,600.02274 286.05548,598.0027 C 286.05548,596.75934 308.00785,577.08337 328.3567,556.13033 C 372.8039,510.36345 380.3073,501.84457 385.19002,491.60533 C 395.98073,468.97678 395.3616,441.74347 383.63662,423.2786 C 378.47176,415.14485 365.01005,403.23684 356.71969,399.46837 C 346.2598,394.71367 331.64749,392.47641 317.87668,393.5211 C 298.35393,395.0021 286.68603,399.8041 273.64102,411.7265 C 264.5888,419.99964 255.8326,436.22265 252.88778,450.17675 C 251.33313,457.54335 251.42192,458.18998 254.3096,460.5339 C 256.68185,462.4594 260.07092,463.0339 269.05778,463.0339 L 280.72593,463.0339 L 283.2731,453.14611 C 286.43779,440.86115 292.84325,430.98435 301.00103,425.81084 C 318.12696,414.94991 340.36994,415.87614 354.02441,430.6895 C 361.65214,438.9646 364.1367,443.93401 364.1367,458.86555 C 364.1367,480.31818 365.58759,482.91181 292.6534,551.95831 C 278.92798,564.95211 266.23639,580.50795 262.92213,584.9943 C 251.4613,600.50827 244.37826,620.2084 248.4829,625.1542 C 250.45052,627.52504 261.35299,627.89668 344.57306,628.43003 L 394.21592,628.74818 L 394.21592,613.74818 z"
     id="path4399"
     sodipodi:nodetypes="ccccscccssscccsscccccssssssssscccssssssccc" />
  <path
     style="opacity:1;fill:#008000;fill-opacity:1;fill-rule:evenodd;stroke:none;stroke-width:10;stroke-linecap:butt;stroke-linejoin:miter;stroke-miterlimit:4;stroke-dasharray:none;stroke-opacity:1"
     d="M 404.21592,345.90961 C 392.82306,345.3881 382.21592,344.25718 380.64449,343.39647 C 379.07306,342.53577 375.29639,339.26063 372.2519,336.11844 L 366.71645,330.40537 L 367.49028,205.64821 C 367.9709,128.15413 368.81638,78.726239 369.72196,75.176754 C 370.63838,71.584754 373.06108,67.822311 376.24506,65.046325 L 381.3102,60.630197 L 408.12025,59.693225 C 422.86572,59.177897 480.92136,58.754439 537.13276,58.752225 L 639.33535,58.748182 L 645.13592,64.819611 C 656.62378,76.843797 655.64849,66.239839 655.61035,178.70891 C 655.57678,277.91514 654.2912,326.03527 651.47663,333.43833 C 650.68935,335.50888 647.51235,338.87914 644.41649,340.92785 C 639.12035,344.43267 637.28078,344.7291 613.28749,345.94391 C 584.65563,347.39363 436.10386,347.36921 404.21592,345.90958 L 404.21592,345.90961 z M 542.78735,202.31961 L 541.52466,84.801664 L 532.17766,84.804235 L 522.57814,84.554226 L 519.10084,89.84783 C 515.02097,103.41749 482.22134,129.5671 462.09306,138.92743 L 451.50363,145.26341 L 453.17726,156.3012 C 453.61499,169.6695 453.35746,172.06693 459.02738,170.34087 C 463.53156,168.9697 478.87109,160.88088 493.78329,152.01344 C 501.00966,147.71635 510.1243,140.32569 510.95153,140.83695 C 511.97818,141.47142 511.19289,173.92144 511.19289,233.8325 L 511.44543,320.59518 L 526.35878,320.59518 L 542.28227,320.34264 L 542.78735,202.31961 z"
     id="path4401"
     sodipodi:nodetypes="cscccsccccccssssccccccccccsssccccc" />
  <path
     style="opacity:1;fill:#008000;fill-opacity:1;fill-rule:evenodd;stroke:none;stroke-width:10;stroke-linecap:butt;stroke-linejoin:miter;stroke-miterlimit:4;stroke-dasharray:none;stroke-opacity:1"
     d="M 103.24909,348.89857 C 85.795141,348.88157 74.419837,348.00831 72.611218,345.63914 C 71.257425,343.86577 64.259347,340.23114 61.409804,336.75363 L 58.501632,329.1682 L 58.501632,201.4094 L 58.501632,73.650568 L 64.738941,63.587848 L 73.501632,59.080954 L 199.9302,58.186397 L 326.35878,57.291839 L 333.25796,59.945796 C 336.91353,62.655554 342.86028,67.597444 344.92962,70.310472 L 348.43951,77.011039 L 349.04064,202.52247 C 349.17752,318.8746 351.99211,327.95804 345.62805,334.37068 C 341.24625,338.78592 332.99243,349.6897 323.5548,348.96244 C 314.19347,348.24105 146.32667,348.91618 103.50163,348.39346 L 103.24909,348.89857 z M 218.7885,318.59808 C 237.44095,314.70833 256.1778,301.22214 266.471,284.27773 C 269.24363,279.71351 272.77026,270.85334 274.43558,264.2679 C 277.13448,253.59525 277.2619,251.28884 275.74996,240.4809 C 273.36123,223.4058 268.96809,214.49627 257.55193,203.57473 C 252.31322,198.563 245.47062,194.96755 246.83575,194.46247 C 249.9339,193.3162 246.1168,186.22907 251.3793,179.98805 C 264.0125,165.00587 267.95208,149.9679 263.64666,133.16221 C 260.40355,120.50298 254.92666,111.11303 246.05892,103.0084 C 232.72388,90.820925 219.1456,85.984554 198.09942,85.925968 C 170.60263,85.849425 150.8861,98.375239 138.31788,123.90493 C 133.19438,134.31215 131.60138,143.1332 134.42492,145.46118 C 136.39633,147.0866 150.80126,150.17675 156.40683,150.17675 C 158.84218,150.17675 160.31762,148.27428 163.33139,141.24818 C 172.44395,120.0037 178.86186,110.8451 197.95058,110.61198 C 207.15063,110.49963 213.7369,111.45687 219.60204,114.89407 C 237.02799,125.10635 242.11384,150.63801 229.01746,165.93818 C 222.89162,173.09487 211.88363,180.44318 197.11941,181.57612 C 191.43553,182.01227 189.14918,181.4333 187.15312,183.97087 C 184.4951,187.35001 182.6443,203.28039 184.40724,205.04332 C 184.90808,205.54416 192.46047,205.35614 200.88165,205.86011 C 212.31839,206.54455 219.44878,208.04499 223.84134,210.29862 C 240.12044,218.65073 246.03525,229.91001 246.05639,250.33541 C 246.07306,266.43675 241.57427,274.81482 231.75084,283.86977 C 222.19885,292.67448 214.69934,296.00161 201.14957,296.00161 C 181.30088,296.0016 171.7914,288.44405 159.61129,264.17233 L 155.81384,252.58826 L 150.24576,250.95094 C 140.27989,252.61587 130.24116,255.87725 129.55898,257.67165 C 128.54436,260.3406 132.23593,273.47055 136.60569,282.73464 C 143.39973,297.13838 160.52062,311.64284 177.76869,317.60708 C 186.15868,320.50827 207.19178,321.0164 218.78846,318.59807 L 218.7885,318.59808 z"
     id="path4403"
     sodipodi:nodetypes="csccccccccccccsscccsssssssssssssssssssssssscccssscc" />
  <path
     style="opacity:1;fill:#008000;fill-opacity:1;fill-rule:evenodd;stroke:none;stroke-width:10;stroke-linecap:butt;stroke-linejoin:miter;stroke-miterlimit:4;stroke-dasharray:none;stroke-opacity:1"
     d="M 195.62351,181.32035 C 195.62351,181.04676 195.90411,180.94154 196.63366,180.94154 C 197.36322,180.94154 197.64382,181.04676 197.64382,181.32035 C 197.64382,181.59393 197.36322,181.69915 196.63366,181.69915 C 195.90411,181.69915 195.62351,181.59393 195.62351,181.32035 z"
     id="path4405" />
</svg>
