<?xml version="1.0" encoding="UTF-8" standalone="no"?>
<!-- Created with Inkscape (http://www.inkscape.org/) -->
<svg
   xmlns:dc="http://purl.org/dc/elements/1.1/"
   xmlns:cc="http://creativecommons.org/ns#"
   xmlns:rdf="http://www.w3.org/1999/02/22-rdf-syntax-ns#"
   xmlns:svg="http://www.w3.org/2000/svg"
   xmlns="http://www.w3.org/2000/svg"
   xmlns:sodipodi="http://sodipodi.sourceforge.net/DTD/sodipodi-0.dtd"
   xmlns:inkscape="http://www.inkscape.org/namespaces/inkscape"
   width="205"
   height="205"
   id="svg2"
   sodipodi:version="0.32"
   inkscape:version="0.46"
   inkscape:export-filename="C:\Dokumente und Einstellungen\leck.PARTMASTER\Eigene Dateien\Eigene Bilder\android\slider_logo_neu_test.png"
   inkscape:export-xdpi="43.900002"
   inkscape:export-ydpi="43.900002"
   sodipodi:docname="slider_logo.svg"
   inkscape:output_extension="org.inkscape.output.svg.inkscape"
   version="1.0"
   style="display:inline;enable-background:new">
  <defs
     id="defs4">
    <linearGradient
       id="linearGradient3796">
      <stop
         style="stop-color:#ffffff;stop-opacity:0"
         offset="0"
         id="stop3798" />
      <stop
         style="stop-color:#3c703c;stop-opacity:0;"
         offset="1"
         id="stop3800" />
    </linearGradient>
    <inkscape:perspective
       sodipodi:type="inkscape:persp3d"
       inkscape:vp_x="0 : 526.18109 : 1"
       inkscape:vp_y="0 : 1000 : 0"
       inkscape:vp_z="744.09448 : 526.18109 : 1"
       inkscape:persp3d-origin="372.04724 : 350.78739 : 1"
       id="perspective10" />
  </defs>
  <sodipodi:namedview
     id="base"
     pagecolor="#ffffff"
     bordercolor="#666666"
     borderopacity="1.0"
     inkscape:pageopacity="0.0"
     inkscape:pageshadow="2"
     inkscape:zoom="2.8284271"
     inkscape:cx="69.507836"
     inkscape:cy="124.74878"
     inkscape:document-units="px"
     inkscape:current-layer="layer7"
     showgrid="false"
     inkscape:window-width="1680"
     inkscape:window-height="994"
     inkscape:window-x="1440"
     inkscape:window-y="22">
    <inkscape:grid
       type="xygrid"
       id="grid2387"
       visible="true"
       enabled="true" />
  </sodipodi:namedview>
  <metadata
     id="metadata7">
    <rdf:RDF>
      <cc:Work
         rdf:about="">
        <dc:format>image/svg+xml</dc:format>
        <dc:type
           rdf:resource="http://purl.org/dc/dcmitype/StillImage" />
      </cc:Work>
    </rdf:RDF>
  </metadata>
  <g
     inkscape:label="Ebene 1"
     inkscape:groupmode="layer"
     id="layer1"
     style="display:inline">
    <flowRoot
       xml:space="preserve"
       id="flowRoot3165"
       style="font-size:40px;font-style:normal;font-weight:normal;fill:#000000;fill-opacity:1;stroke:none;stroke-width:1px;stroke-linecap:butt;stroke-linejoin:miter;stroke-opacity:1;font-family:Bitstream Vera Sans"><flowRegion
         id="flowRegion3167"><rect
           id="rect3169"
           width="36.062447"
           height="41.012192"
           x="39.59798"
           y="38.371059" /></flowRegion><flowPara
         id="flowPara3171" /></flowRoot>  </g>
  <g
     inkscape:groupmode="layer"
     id="layer7"
     inkscape:label="tiles"
     style="opacity:1;display:inline">
    <rect
       style="opacity:1;fill:#000000;fill-opacity:0;fill-rule:evenodd;stroke:none;stroke-width:10;stroke-linecap:butt;stroke-linejoin:miter;stroke-miterlimit:4;stroke-dasharray:none;stroke-opacity:1"
       id="rect3283"
       width="205"
       height="205"
       x="0"
       y="1.9505014e-14" />
    <rect
       style="opacity:1;fill:#3c703c;fill-opacity:1;fill-rule:evenodd;stroke:none;stroke-width:10;stroke-linecap:butt;stroke-linejoin:miter;stroke-miterlimit:4;stroke-dasharray:none;stroke-opacity:1"
       id="rect3285"
       width="2.4748738"
       height="0"
       x="-0.70710677"
       y="85.145401"
       rx="10"
       ry="0" />
  </g>
  <g
     inkscape:groupmode="layer"
     id="layer8"
     inkscape:label="numbers"
     style="display:inline">
    <path
       style="opacity:1;fill:#5e845f;fill-opacity:1;fill-rule:evenodd;stroke:none;stroke-width:10;stroke-linecap:butt;stroke-linejoin:miter;stroke-miterlimit:4;stroke-dasharray:none;stroke-opacity:1;display:inline;enable-background:new"
       d="M 10,4.7e-06 C 4.46,4.7e-06 0,4.4600047 0,10.000005 L 0,90.000007 C 0,95.540007 4.46,100 10,100 L 89.999996,100 C 95.539996,100 99.999996,95.540007 99.999996,90.000007 L 99.999996,10.000005 C 99.999996,4.4600047 95.539996,4.7e-06 89.999996,4.7e-06 L 10,4.7e-06 z M 50.687496,11.781255 C 54.854126,11.781332 58.680516,12.697777 62.187496,14.531255 C 65.694396,16.364885 68.361056,18.862657 70.218746,22.031255 C 72.076336,25.199993 73.031196,28.564764 73.031246,32.125005 C 73.031186,35.507348 72.145776,38.566771 70.374996,41.343755 C 68.604106,44.12084 65.972176,46.33106 62.499996,47.968755 C 67.013846,49.036895 70.531196,51.260555 73.031246,54.625005 C 75.531186,57.989525 76.781196,62.194405 76.781246,67.250005 C 76.781186,74.085795 74.329806,79.903267 69.468746,84.656257 C 64.607596,89.409257 58.461766,91.781257 51.031246,91.781257 C 44.32984,91.781257 38.77082,89.719357 34.34375,85.625007 C 29.916658,81.530667 27.406245,76.234125 26.78125,69.718755 L 36.15625,68.437505 C 37.23262,73.884785 39.03818,77.815565 41.625,80.218757 C 44.21179,82.621977 47.37845,83.812517 51.093746,83.812507 C 55.503436,83.812507 59.211766,82.258077 62.249996,79.125005 C 65.288156,75.991955 66.812456,72.097165 66.812496,67.468755 C 66.812446,63.054005 65.406206,59.428575 62.593746,56.562505 C 59.781206,53.696495 56.215236,52.250045 51.874996,52.250005 C 50.104136,52.250045 47.88886,52.600485 45.25,53.312505 L 46.3125,44.875005 C 46.93748,44.946255 47.43053,45.00005 47.8125,45.000005 C 51.805526,45.000054 55.399266,43.917483 58.593746,41.781255 C 61.788156,39.645125 63.374956,36.356687 63.374996,31.906255 C 63.374956,28.381616 62.232596,25.470517 59.906246,23.156255 C 57.579826,20.842129 54.555516,19.687576 50.874996,19.687505 C 47.22914,19.687572 44.21178,20.837775 41.78125,23.187505 C 39.35068,25.537369 37.78818,29.081717 37.09375,33.781255 L 27.71875,32.062505 C 28.864576,25.618425 31.468741,20.636326 35.53125,17.093755 C 39.59373,13.551334 44.64581,11.781334 50.687496,11.781255 z"
       id="rect3278" />
    <path
       style="opacity:1;fill:#5e845f;fill-opacity:1;fill-rule:evenodd;stroke:none;stroke-width:10;stroke-linecap:butt;stroke-linejoin:miter;stroke-miterlimit:4;stroke-dasharray:none;stroke-opacity:1;display:inline;enable-background:new"
       d="M 115 0 C 109.46 0 105 4.46 105 10 L 105 90 C 105 95.54 109.46 100 115 100 L 195 100 C 200.54 100 205 95.54 205 90 L 205 10 C 205 4.46 200.54 -2.7018589e-17 195 0 L 115 0 z M 159.0625 10 L 165.5 10 L 165.5 90 L 155.5 90 L 155.5 27.65625 C 153.09256 29.902687 149.93863 32.159931 146.03125 34.40625 C 142.12383 36.652681 138.6111 38.345613 135.5 39.46875 L 135.5 30 C 141.09257 27.427598 145.97104 24.315736 150.15625 20.65625 C 154.3414 16.996903 157.32172 13.442106 159.0625 10 z "
       id="rect7061" />
    <path
       style="opacity:1;fill:#5e845f;fill-opacity:1;fill-rule:evenodd;stroke:none;stroke-width:10;stroke-linecap:butt;stroke-linejoin:miter;stroke-miterlimit:4;stroke-dasharray:none;stroke-opacity:1;display:inline;enable-background:new"
       d="M 50 105 C 44.46 105 40 109.46 40 115 L 40 195 C 40 200.54 44.46 205 50 205 L 130 205 C 135.54 205 140 200.54 140 195 L 140 115 C 140 109.46 135.54 105 130 105 L 50 105 z M 91.375 115 C 98.618352 115.00008 104.34001 117.1047 108.5625 121.34375 C 112.7849 125.58295 114.9062 130.85695 114.90625 137.125 C 114.90619 140.31346 114.26704 143.45159 113.03125 146.53125 C 111.79536 149.61101 109.74141 152.84424 106.875 156.25 C 104.0085 159.65584 99.253514 164.33925 92.59375 170.28125 C 87.032445 175.20881 83.454106 178.55527 81.875 180.3125 C 80.295852 182.06976 78.998599 183.8184 77.96875 185.59375 L 115 185.59375 L 115 195 L 65.09375 195 C 65.02509 192.64492 65.397932 190.39267 66.1875 188.21875 C 67.457663 184.63181 69.483439 181.07202 72.28125 177.59375 C 75.079037 174.11551 79.119587 170.09649 84.40625 165.53125 C 92.610819 158.42983 98.147589 152.80484 101.03125 148.65625 C 103.91483 144.50775 105.37496 140.60196 105.375 136.90625 C 105.37495 133.0295 104.06362 129.75686 101.4375 127.09375 C 98.811303 124.43078 95.378668 123.09382 91.15625 123.09375 C 86.693474 123.09382 83.115131 124.51773 80.4375 127.34375 C 77.759829 130.1699 76.409314 134.06256 76.375 139.0625 L 66.84375 138.03125 C 67.495995 130.53131 69.961962 124.83748 74.21875 120.90625 C 78.47551 116.97517 84.200244 115.00008 91.375 115 z "
       id="rect7063" />
  </g>
</svg>
